<?xml version="1.0" encoding="utf-8"?>
<!-- Generator: Adobe Illustrator 22.0.0, SVG Export Plug-In . SVG Version: 6.00 Build 0)  -->
<svg version="1.1" id="Layer_1" xmlns="http://www.w3.org/2000/svg" xmlns:xlink="http://www.w3.org/1999/xlink" x="0px" y="0px"
	 viewBox="0 0 322 226" style="enable-background:new 0 0 322 226;" xml:space="preserve">
<style type="text/css">
	.st0{enable-background:new    ;}
	.st1{fill:#3D3D3D;}
	.st2{fill:#D82446;}
</style>
<g class="st0">
	<path class="st1" d="M59.3,115.7h9.1v10.5c0,0.9-0.3,1.7-0.9,2.4c-0.6,0.7-1.5,1-2.7,1h-5.4v20.3H42.9v-20.3H7.5
		c-1.2,0-2.2-0.4-3.2-1.1c-0.9-0.7-1.5-1.6-1.8-2.7l-1.9-9.2l40.8-54.8h17.9V115.7z M42.9,92.7c0-1.4,0-2.9,0.2-4.6
		c0.1-1.6,0.3-3.3,0.5-5l-23.3,32.6h22.7V92.7z"/>
</g>
<g class="st0">
	<path class="st1" d="M314.3,115.7h9.1v10.5c0,0.9-0.3,1.7-0.9,2.4c-0.6,0.7-1.5,1-2.7,1h-5.4v20.3h-16.3v-20.3h-35.5
		c-1.2,0-2.2-0.4-3.2-1.1c-0.9-0.7-1.5-1.6-1.8-2.7l-1.9-9.2l40.8-54.8h17.9V115.7z M297.9,92.7c0-1.4,0-2.9,0.2-4.6
		c0.1-1.6,0.3-3.3,0.5-5l-23.3,32.6h22.7V92.7z"/>
</g>
<g>
	<path class="st2" d="M162.9,0.5c2.9,0,5.3,2.3,5.3,5.3V31c0,2.9-2.4,5.2-5.3,5.2c-2.9,0-5.3-2.4-5.3-5.2V5.8
		C157.6,2.8,160,0.5,162.9,0.5z"/>
	<path class="st2" d="M223.3,29c2.1,2.1,2.1,5.3,0.2,7.3l-8.5,8.5c-2,2-5.2,1.9-7.3-0.2c-2.1-2.1-2.1-5.3-0.2-7.3l8.5-8.5
		C218,26.8,221.3,26.9,223.3,29z"/>
	<path class="st2" d="M102.4,29.4c-2.1,2.1-2.1,5.3-0.2,7.3l8.6,8.6c2,2,5.3,1.9,7.3-0.2s2.1-5.3,0.2-7.3l-8.6-8.6
		C107.7,27.3,104.4,27.4,102.4,29.4z"/>
</g>
<g>
	<path class="st2" d="M162.8,189.7c2.9,0,5.3,2.4,5.3,5.3v25.3c0,2.9-2.4,5.3-5.3,5.3c-2.9,0-5.3-2.4-5.3-5.3V195
		C157.6,192.1,159.9,189.7,162.8,189.7z"/>
	<path class="st2" d="M102.3,197c-2.1-2.1-2.1-5.3-0.2-7.3l8.5-8.5c2-2,5.2-1.9,7.3,0.2c2.1,2.1,2.1,5.3,0.2,7.3l-8.5,8.5
		C107.7,199.2,104.4,199.1,102.3,197z"/>
	<path class="st2" d="M223.4,196.6c2.1-2.1,2.1-5.3,0.2-7.3l-8.6-8.6c-2-2-5.3-1.9-7.3,0.2c-2.1,2.1-2.1,5.3-0.2,7.3l8.6,8.6
		C218,198.7,221.3,198.6,223.4,196.6z"/>
</g>
</svg>
