<?xml version="1.0" encoding="utf-8"?>
<!-- Generator: Adobe Illustrator 22.0.0, SVG Export Plug-In . SVG Version: 6.00 Build 0)  -->
<svg version="1.1" id="Layer_1" xmlns="http://www.w3.org/2000/svg" xmlns:xlink="http://www.w3.org/1999/xlink" x="0px" y="0px"
	 viewBox="0 0 569.1 164.4" style="enable-background:new 0 0 569.1 164.4;" xml:space="preserve">
<style type="text/css">
	.st0{fill:#404040;}
	.st1{fill:url(#SVGID_1_);}
	.st2{fill:url(#SVGID_2_);}
	.st3{fill:url(#SVGID_3_);}
	.st4{fill:url(#SVGID_4_);}
	.st5{fill:url(#SVGID_5_);}
	.st6{fill:url(#SVGID_6_);}
	.st7{fill:url(#SVGID_7_);}
	.st8{fill:url(#SVGID_8_);}
	.st9{fill:#FFFFFF;}
</style>
<g>
	<g>
		<path class="st0" d="M245.9,136.1h-14.5c-1.5,0-3-0.5-4-1.2c-1-0.7-1.7-1.7-2.2-3l-4.7-14h-30.7l-4.7,14c-0.2,1-1,2-2.2,2.7
			c-1,0.7-2.5,1.2-4,1.2h-14.2l31.2-80.4h19.2L245.9,136.1z M194.2,105.4h22l-7.5-22c-0.5-1.5-1-3-1.7-5c-0.7-2-1.2-4-2-6.2
			c-0.5,2.2-1.2,4.2-1.7,6.2c-0.7,2-1.2,3.5-1.7,5L194.2,105.4z"/>
		<path class="st0" d="M289.8,107.2c0,4.5-0.5,8.5-1.7,12.2c-1.2,3.7-2.7,6.7-5,9.5s-5,4.7-8.5,6.2c-3.5,1.5-7.5,2.2-12,2.2
			c-2,0-4.2,0-6.2-0.2c-2-0.2-4.2-0.5-6.5-1l1-11c0-1,0.5-1.7,1.2-2.2c0.7-0.5,1.7-1,2.7-1c0.7,0,1.5,0,2.2,0.2c1,0.2,2,0.2,3.2,0.2
			c1.7,0,3.5-0.2,4.7-0.7c1.2-0.5,2.5-1.2,3.2-2.5c1-1.2,1.5-2.7,2-4.5c0.5-1.7,0.7-4.2,0.7-7V55.7h18.7L289.8,107.2L289.8,107.2z"
			/>
		<path class="st0" d="M346.3,103.9c0.7,1.5,1.2,3,2,4.7c0.7-1.5,1.2-3.2,2-4.7c0.7-1.5,1.5-3,2.2-4.5l20.7-40.7
			c0.2-0.7,0.7-1.2,1.2-1.7s0.7-0.7,1.2-0.7c0.5-0.2,1-0.2,1.7-0.2c0.5,0,1.2,0,2.2,0H394v80.4h-16.5V89.9c0-2.2,0-4.7,0.2-7.2
			l-21.2,41.5c-0.7,1.2-1.5,2.2-2.7,3s-2.5,1-3.7,1h-2.5c-1.5,0-2.7-0.2-3.7-1c-1-0.7-2-1.7-2.7-3l-22-41.5c0.2,1.2,0.2,2.5,0.2,3.7
			s0,2.5,0,3.5v46.2h-16.5V55.7H317c0.7,0,1.5,0,2.2,0s1.2,0,1.7,0.2c0.5,0.2,1,0.5,1.2,0.7c0.5,0.5,0.7,1,1.2,1.7l20.7,41
			C345,100.9,345.8,102.4,346.3,103.9z"/>
		<path class="st0" d="M481.6,136.1h-14.5c-1.5,0-3-0.5-4-1.2c-1-0.7-1.7-1.7-2.2-3l-4.7-14h-30.7l-4.7,14c-0.2,1-1,2-2.2,2.7
			c-1,0.7-2.5,1.2-4,1.2H400l31.2-80.4h19.2L481.6,136.1z M429.9,105.4h22l-7.5-22c-0.5-1.5-1-3-1.7-5s-1.2-4-2-6.2
			c-0.5,2.2-1.2,4.2-1.7,6.2c-0.7,2-1.2,3.5-1.7,5L429.9,105.4z"/>
		<path class="st0" d="M558.5,136.1h-18.7v-34h-32.7v34h-18.7V55.7h18.7v33.7h32.7V55.7h18.7V136.1z"/>
	</g>
	<g>
		<g>
			<g>
				
					<linearGradient id="SVGID_1_" gradientUnits="userSpaceOnUse" x1="63.3389" y1="1511.2108" x2="84.3564" y2="1433.5623" gradientTransform="matrix(1 0 0 1 0 -1365.916)">
					<stop  offset="0" style="stop-color:#660F24"/>
					<stop  offset="1" style="stop-color:#E81D25"/>
				</linearGradient>
				<path class="st1" d="M72.5,146.9c-4.5,0-9-0.7-13.5-1.7c-5.2-1.5-10-3.5-14.7-6.2c-6.2-3.7-11.7-8.7-16-14.7
					c-6-8.2-9.5-17.5-10.5-27.5c-1-9,0.2-17.5,3.5-26c2.2-5.5,5.2-10.7,9-15.2c3-3.7,6.7-7,10.5-10c6.2-4.5,13-7.5,20.2-9.2
					c2-0.5,4-0.5,5.7-1c0.7-0.2,1.5-0.2,2.2-0.5c0.7-0.2,1.2-1,1.5-2c1.2-4.7,5.5-6.7,9.2-6.2c1,0,2,0.2,3,0.7
					c2.2,0.7,3.5,2.5,4.2,4.5c0.5,1.7,0.7,3.7,0.5,5.7c-0.2,1.5-0.5,3.2,0,4.7c0.5,2.7,2,4.7,4.2,6.5c3.2,2.2,6.7,2.5,10.5,1
					c1-0.5,2-1,2.7-1.7c1-0.7,2-1.7,3-2.7c1.2-1.2,2.7-2,4.5-2.5c3.5-1.2,6.7-1,9.7,0.7c4.2,2.5,6.7,6,6.7,11c0,2.7-0.5,5.2-2.2,7.5
					c-1,1.2-2,2.5-3,3.7c-1.7,2-3,4.2-3.2,7c-0.5,3.5,0.7,6.2,3.2,9c0.7,1,1.7,1.7,2.7,2.2c1.2,0.7,2.7,1.2,4.5,1.2
					c2.7,0,5.5,1,7,3.5c1.5,2.2,2,4.5,1.2,7.2c-1,4.2-4.2,6.5-8.2,6.7c-0.2,0-0.7,0-1,0c-0.5,0-0.7,0.2-1,1
					c-0.7,3.2-2.2,6.5-3.7,9.5c-1.2,2.5-2.5,5-3.7,7.2c-2.2,3.7-5,7.2-8.2,10.2c-7,7-15.2,11.7-24.5,14.2c-4.7,1.2-9.5,2-14.5,2
					C73.3,146.9,72.8,146.9,72.5,146.9z M48.6,79c1.2,0,2.2,0,3.5,0c0.7,0,1.2,0.2,1.7,1c3.2,6.2,6.2,12.7,9.5,19
					c0.2,0.7,0.7,1,1.5,1c11.2,0,22.5,0,34,0c0.2,0,0.5,0,1,0c-0.2-0.5-0.2-0.7-0.5-1.2c-2.2-4.7-4.5-9.2-7-14
					c-1.5-3.2-3.2-6.2-4.7-9.5c-0.2-0.5-0.7-0.7-1.2-0.7c-1,0-2,0-3,0c-0.7,0-1.2,0.2-1.5,1c-2.2,4.7-4.7,9.7-7.2,14.5
					c-0.2,0.2-0.2,0.5-0.5,1c0.2,0,0.7,0,1,0c1.2,0,2.2,0,3.5,0c0.7,0,1-0.2,1.2-0.7c1.5-2.7,2.7-5.5,4.2-8c0.2-0.2,0.2-0.5,0.5-0.7
					c1,1.5,7.2,13.5,7.2,14.2c-0.2,0-0.5,0-0.7,0c-7.5,0-15.2,0-22.7,0c-0.7,0-1.2-0.2-1.7-1C63.3,88.2,60.3,82,57,75.5
					c-0.2-0.5-0.7-0.7-1.2-0.7c-3,0-5.7,0-8.7,0c-0.2,0-0.5,0-1,0c0,0.2,0.2,0.5,0.2,0.5C47.1,76,47.8,77.5,48.6,79z M67.5,102.4
					c-2-0.2-4.2,1.5-4.2,4c0,2.2,1.7,4,4,4c2.2,0,4-1.7,4-4C71.5,104.2,70,102.4,67.5,102.4z M95.5,102.4c-2.2,0-4,1.7-4,4
					c0,2.2,1.7,4,4,4c2.5,0,4-2.2,4.2-4C99.5,104.2,97.5,102.2,95.5,102.4z"/>
				
					<linearGradient id="SVGID_2_" gradientUnits="userSpaceOnUse" x1="69.7233" y1="1512.939" x2="90.7409" y2="1435.2903" gradientTransform="matrix(1 0 0 1 0 -1365.916)">
					<stop  offset="0" style="stop-color:#660F24"/>
					<stop  offset="1" style="stop-color:#E81D25"/>
				</linearGradient>
				<path class="st2" d="M99.5,30.8c3.7,0.2,6.7,3,6.5,6.7c0,4-3,6.7-6.7,6.7c-3.7-0.2-6.7-3-6.5-6.7C92.8,33.2,95.8,30.8,99.5,30.8
					z"/>
				
					<linearGradient id="SVGID_3_" gradientUnits="userSpaceOnUse" x1="108.8965" y1="1523.5422" x2="129.9143" y2="1445.8936" gradientTransform="matrix(1 0 0 1 0 -1365.916)">
					<stop  offset="0" style="stop-color:#660F24"/>
					<stop  offset="1" style="stop-color:#E81D25"/>
				</linearGradient>
				<path class="st3" d="M137,73.5c-0.2,3-2,5.2-5,5.2c-3.2,0-5.5-2.2-5.5-5.2s2-5.2,5-5.2C134.7,68.2,137,70.5,137,73.5z"/>
				
					<linearGradient id="SVGID_4_" gradientUnits="userSpaceOnUse" x1="77.2162" y1="1514.9674" x2="98.234" y2="1437.3185" gradientTransform="matrix(1 0 0 1 0 -1365.916)">
					<stop  offset="0" style="stop-color:#660F24"/>
					<stop  offset="1" style="stop-color:#E81D25"/>
				</linearGradient>
				<path class="st4" d="M111.5,26.8c-2.7-0.2-4.2-1.7-4.2-4.2c0-2.2,2-4,4.2-4c2.2,0,4.2,1.7,4.2,4C115.5,25,113.7,26.8,111.5,26.8
					z"/>
				
					<linearGradient id="SVGID_5_" gradientUnits="userSpaceOnUse" x1="109.2235" y1="1523.6306" x2="130.241" y2="1445.9822" gradientTransform="matrix(1 0 0 1 0 -1365.916)">
					<stop  offset="0" style="stop-color:#660F24"/>
					<stop  offset="1" style="stop-color:#E81D25"/>
				</linearGradient>
				<path class="st5" d="M137.7,48.5c2.5,0.2,4.2,1.7,4,4c0,2.2-1.5,4.2-4,4c-2.5,0-4.2-1.7-4-4C133.7,50,135.2,48.5,137.7,48.5z"/>
				
					<linearGradient id="SVGID_6_" gradientUnits="userSpaceOnUse" x1="91.6021" y1="1518.8611" x2="112.6199" y2="1441.2125" gradientTransform="matrix(1 0 0 1 0 -1365.916)">
					<stop  offset="0" style="stop-color:#660F24"/>
					<stop  offset="1" style="stop-color:#E81D25"/>
				</linearGradient>
				<path class="st6" d="M123.5,31.5c2,0.2,3.5,1.2,3.5,3.2c0,1.7-1.2,3.2-3.2,3.2c-2,0-3.5-1.2-3.5-3.2
					C120.2,33,121.2,31.5,123.5,31.5z"/>
				
					<linearGradient id="SVGID_7_" gradientUnits="userSpaceOnUse" x1="113.1049" y1="1524.6814" x2="134.1228" y2="1447.0327" gradientTransform="matrix(1 0 0 1 0 -1365.916)">
					<stop  offset="0" style="stop-color:#660F24"/>
					<stop  offset="1" style="stop-color:#E81D25"/>
				</linearGradient>
				<path class="st7" d="M145.5,42.5c-2.2-0.2-3.5-1.2-3.2-3.2c0-1.7,1.2-3.5,3.2-3.2c2,0,3.2,1.2,3.2,3.2
					C148.7,41,147.5,42.5,145.5,42.5z"/>
				
					<linearGradient id="SVGID_8_" gradientUnits="userSpaceOnUse" x1="95.0019" y1="1519.7815" x2="116.0194" y2="1442.1326" gradientTransform="matrix(1 0 0 1 0 -1365.916)">
					<stop  offset="0" style="stop-color:#660F24"/>
					<stop  offset="1" style="stop-color:#E81D25"/>
				</linearGradient>
				<path class="st8" d="M131.2,17.5c1.2,0,2.5,1,2.2,2c0,1.2-0.7,2.2-2,2.2c-1.2,0-2.2-1-2.2-2C129.2,18.5,129.7,17.5,131.2,17.5z"
					/>
				<path class="st9" d="M48.6,79c-0.7-1.5-1.5-3-2.5-4.2c0-0.2-0.2-0.2-0.2-0.5c0.2,0,0.7,0,1,0c3,0,5.7,0,8.7,0
					c0.7,0,1,0.2,1.2,0.7c3.2,6.5,6.5,12.7,9.5,19.2c0.2,0.7,0.7,1,1.7,1c7.5,0,15.2,0,22.7,0c0.2,0,0.5,0,0.7,0
					c0-0.7-6.2-12.5-7.2-14.2c-0.2,0.2-0.2,0.5-0.5,0.7c-1.5,2.7-3,5.5-4.2,8c-0.2,0.5-0.7,0.7-1.2,0.7c-1.2,0-2.2,0-3.5,0
					c-0.2,0-0.5,0-1,0c0.2-0.2,0.2-0.7,0.5-1C76.8,84.7,79,80,81.5,75c0.2-0.7,0.7-1,1.5-1c1,0,2,0,3,0c0.7,0,1,0.2,1.2,0.7
					c1.5,3.2,3,6.2,4.7,9.5c2.2,4.7,4.5,9.2,7,14c0.2,0.2,0.2,0.7,0.5,1.2c-0.5,0-0.7,0-1,0c-11.2,0-22.5,0-34,0c-0.7,0-1-0.2-1.5-1
					c-3.2-6.2-6.5-12.7-9.5-19c-0.2-0.7-0.7-1-1.7-1C50.8,79,49.8,79,48.6,79z"/>
				<path class="st9" d="M67.5,102.4c2.2,0,4,1.7,4,4.2c0,2.2-1.7,4-4,4c-2.2,0-4-1.7-4-4C63.5,103.9,65.5,102.2,67.5,102.4z"/>
				<path class="st9" d="M95.5,102.4c2-0.2,4,1.7,4,4c0,1.7-1.5,4-4.2,4c-2.2,0-4-1.7-4-4C91.5,104.2,93.3,102.4,95.5,102.4z"/>
			</g>
		</g>
		<path class="st9" d="M99.5,75.2L99.3,73c0.2-0.2,0.5-0.5,0.7-0.5c0.2-0.2,0.5-0.5,0.5-0.7l2.2,0.2c0.2,0,0.5,0,0.5-0.2l0.7-3
			c0-0.2,0-0.5-0.2-0.5l-2-0.7l0,0c0-0.5-0.2-1.2-0.5-1.7l1.2-1.7c0.2-0.2,0-0.5,0-0.5l-2.2-2.2c-0.2-0.2-0.5-0.2-0.5,0L98,62.5l0,0
			c-0.5-0.2-1.2-0.5-1.7-0.5l0,0l-0.7-2c0-0.2-0.2-0.2-0.5-0.2l-3.2,0.5c-0.2,0-0.2,0.2-0.2,0.5l0.2,2.2c-0.2,0.2-0.5,0.5-0.7,0.5
			s-0.5,0.5-0.5,0.7L88.3,64c-0.2,0-0.5,0-0.5,0.2l-0.7,3c0,0.2,0,0.5,0.2,0.5l2,0.7c0,0.5,0.2,1.2,0.5,1.7L88.5,72
			c-0.2,0.2,0,0.5,0,0.5l2.2,2.2c0.2,0.2,0.5,0.2,0.5,0l1.7-1.2l0,0c0.5,0.2,1.2,0.5,1.7,0.5l0.7,2c0,0.2,0.2,0.2,0.5,0.2l3-0.7
			C99.5,75.5,99.5,75.5,99.5,75.2z M93.8,70.2c-1.7-1.2-1.7-3.5,0-4.7c1-0.7,2.5-0.7,3.5,0c1.7,1.2,1.7,3.5,0,4.7
			C96.3,71,94.8,71,93.8,70.2z"/>
	</g>
</g>
</svg>
