<?xml version="1.0" encoding="utf-8"?>
<!-- Generator: Adobe Illustrator 17.1.0, SVG Export Plug-In . SVG Version: 6.00 Build 0)  -->
<!DOCTYPE svg PUBLIC "-//W3C//DTD SVG 1.1//EN" "http://www.w3.org/Graphics/SVG/1.1/DTD/svg11.dtd">
<svg version="1.1" id="icon" xmlns="http://www.w3.org/2000/svg" xmlns:xlink="http://www.w3.org/1999/xlink" x="0px" y="0px"
	 viewBox="0 0 512 512" enable-background="new 0 0 512 512" xml:space="preserve">
<g>
	<path fill="#FFFFFF" d="M306.4,196.9c-3.5-2.5-8.5-2.5-12,0c-5.8,4.2-5.8,12.8,0,17c3.6,2.5,8.5,2.6,12,0
		C312.2,209.7,312.2,201.1,306.4,196.9z"/>
	<path fill="#FFFFFF" d="M424.6,266.5c-5.7-0.2-10.9-1.4-15.7-4.4c-3.7-2.3-7-5-9.8-8.3c-8-9-12.6-19.2-11.1-31.6
		c1.2-9.6,5.3-17.8,11.5-25.1c3.7-4.3,7.5-8.4,10.8-13c5.8-7.9,8.1-17.1,7.8-26.7c-0.5-17.7-9.6-30.4-24.3-39.1
		c-11-6.5-22.8-7.2-34.8-3.1c-5.9,2-11.3,4.8-15.8,9.1c-3.4,3.2-6.6,6.7-10.2,9.6c-3,2.5-6.3,4.9-9.9,6.3c-12.9,5.3-25.4,4.7-37-3.6
		c-7.9-5.7-13-13.1-14.8-22.9c-1-5.8-0.3-11.5,0.4-17.2c0.9-6.9,0.3-13.5-1.8-20c-2.5-7.8-7.4-13.6-15.3-16.3
		c-3.3-1.1-6.9-2-10.4-2.4c-13.7-1.6-28.9,5-33.1,22.2c-0.7,2.9-2.2,5.6-5.2,6.8c-2.5,1-5.1,1.8-7.7,2.2c-6.9,1.3-13.9,1.9-20.7,3.5
		c-26.1,6.2-50.2,16.8-72,32.6C91.5,135.3,79,147,68,160.3c-13.5,16.3-24,34.4-31.7,54.2c-11.5,29.8-15.6,60.6-12.4,92.3
		c3.6,36,16.2,68.7,37.7,97.9c15.5,21.2,34.5,38.5,56.9,52.2c16.4,10,33.8,17.4,52.3,22.3c15.6,4.1,31.5,6.2,47.6,6.4
		c1.7,0,3.3,0,4.8,0c17.6,0.2,34.8-2.2,51.6-7c33.4-9.4,62.6-26.2,87.2-50.8c11.1-11.1,20.8-23.2,29-36.5c5.1-8.3,9.3-17,13.6-25.7
		c5.4-10.9,10.2-22,13.2-33.9c0.5-2,1.8-2.9,3.6-3.2c1.2-0.2,2.4-0.2,3.7-0.2c14.1-0.7,25.8-9.2,29.4-23.9
		c2.2-9.2,0.7-17.9-4.7-25.6C443.7,270.3,434.7,266.7,424.6,266.5z M201.2,356.9c-8.1,0-14.5-6.5-14.4-14.6
		c0.1-8.6,7.7-14.8,14.7-14.2c8.2,0.1,14.2,6.4,14.1,14.7C215.5,350.8,209.2,357,201.2,356.9z M190.7,318.8c-2.6,0-3.9-1-5-3.2
		C174.4,293,163,270.5,151.8,248c-1.3-2.6-2.7-3.9-5.8-3.7c-4,0.3-8.1,0.1-12.3,0.1c-2.9-5.2-5.7-10.2-8.5-15.3
		c-0.3-0.5-0.5-1.1-0.8-2.1c1.3-0.1,2.3-0.3,3.4-0.3c10.2,0,20.4,0.1,30.6-0.1c2.5,0,3.7,0.9,4.8,3.1c11.3,22.7,22.7,45.3,33.9,68
		c1.3,2.7,2.8,3.7,5.8,3.7c27,0,53.9,0.2,80.8,0.3h3c-0.3-2.6-21.8-44.8-25.6-50.3c-0.6,1-1.2,1.8-1.7,2.7
		c-5.1,9.6-10.2,19.1-15.1,28.7c-1.1,2.1-2.3,3.1-4.8,3c-4-0.2-8.1,0-12.2-0.1c-1,0-1.9-0.1-3.2-0.2c0.5-1.3,0.9-2.3,1.4-3.2
		c8.5-17.1,17-34.1,25.4-51.2c1.2-2.5,2.6-3.4,5.4-3.3c3.5,0.2,7.1,0.2,10.7,0c2.5-0.2,3.7,0.7,4.8,2.9c5.4,11.3,11,22.5,16.6,33.8
		c8.2,16.5,16.3,33.1,24.5,49.6c0.6,1.3,1.2,2.6,2,4.3c-1.5,0.1-2.6,0.3-3.6,0.3C270.9,318.7,230.8,318.7,190.7,318.8z M300.1,356.9
		c-8-0.2-14.1-6.4-14.1-14.4c0-8.2,6.2-14.4,14.4-14.4c7.2-0.5,14.5,6.3,14.4,14.5C314.7,349,309.4,357.1,300.1,356.9z M330.8,207.7
		l-2.9,11c-0.2,0.8-1,1.3-1.8,1.2l-7.6-1c-0.6,0.9-1.4,1.7-2.2,2.5c-0.8,0.8-1.7,1.5-2.6,2.2l1,7.6c0.1,0.8-0.4,1.6-1.2,1.8l-11,2.9
		c-0.8,0.2-1.6-0.2-1.9-0.9l-2.9-7.1c-2.2-0.3-4.4-0.8-6.5-1.7l-6.1,4.7c-0.6,0.5-1.6,0.4-2.1-0.1l-8-8c-0.6-0.6-0.6-1.5-0.1-2.1
		l4.7-6.1c-0.9-2.1-1.5-4.3-1.7-6.5l-7.1-2.9c-0.7-0.3-1.1-1.1-0.9-1.9l3-11c0.2-0.8,1-1.3,1.8-1.2l7.6,1c0.6-0.9,1.4-1.7,2.2-2.5
		c0.8-0.8,1.7-1.5,2.6-2.2l-1-7.6c-0.1-0.8,0.4-1.5,1.2-1.8l11-2.9c0.8-0.2,1.6,0.2,1.9,0.9l2.9,7.1c2.2,0.3,4.4,0.8,6.4,1.7
		c0,0,0,0,0,0l6-4.7c0.6-0.5,1.6-0.4,2.1,0.1l8,8c0.6,0.6,0.6,1.5,0.1,2.1l-4.7,6.1c0.9,2.1,1.5,4.3,1.7,6.5l7.1,2.9
		C330.6,206.1,331,207,330.8,207.7z"/>
	<path fill="#FFFFFF" d="M313.8,120.8c12.8,0.3,23.7-9.3,23.8-23.8c0.2-13.1-9.9-23-23.4-23.5c-12.9-0.2-23.4,9.4-23.8,23.4
		C290,110,300.1,120.4,313.8,120.8z"/>
	<path fill="#FFFFFF" d="M410.8,225.8c-0.1,10.6,7.9,18.6,19.3,18.2c11-0.3,17.2-8.4,17.8-18.8c-0.6-10.6-8.1-18.3-19.3-18.1
		C417.8,207.3,410.9,215.4,410.8,225.8z"/>
	<path fill="#FFFFFF" d="M357.1,59.5c8.3-0.1,14.2-6.1,14.6-14.9c0.4-8.5-6.9-14.6-15.1-14.6c-8-0.1-14.7,6.3-14.7,14
		C341.8,53,347.7,59,357.1,59.5z"/>
	<path fill="#FFFFFF" d="M450.1,136.3c-8.7,0.1-14,5.8-14.4,14.5c-0.4,8.4,5.6,14,14.4,14.4c9.1,0.3,14.1-6,14.4-14.4
		C465,142.2,459.1,137.2,450.1,136.3z"/>
	<path fill="#FFFFFF" d="M400.1,100c7.4,0.1,11.4-5.3,11.5-11.8c0.1-7.2-4.8-11.2-12-11.8c-7.7,0.2-11.7,5.6-11.7,12.1
		C387.9,95.6,392.7,99.9,400.1,100z"/>
	<path fill="#FFFFFF" d="M477.5,91.4c-7.7-0.3-11.8,5.2-11.9,11.7c-0.1,7,4.2,11.2,11.9,11.8c7.2-0.1,11.6-5.1,11.7-12
		C489.3,96,484.6,91.6,477.5,91.4z"/>
	<path fill="#FFFFFF" d="M427.5,41.8c4.7-0.1,7.1-3.3,7.5-7.9c0.3-4.2-3.7-7.6-8.2-7.5c-4.6,0.2-7.1,3.6-7.3,8.1
		C419.3,38.5,423.1,41.9,427.5,41.8z"/>
</g>
</svg>
