<?xml version="1.0" encoding="utf-8"?>
<!-- Generator: Adobe Illustrator 22.0.0, SVG Export Plug-In . SVG Version: 6.00 Build 0)  -->
<svg version="1.1" id="icon" xmlns="http://www.w3.org/2000/svg" xmlns:xlink="http://www.w3.org/1999/xlink" x="0px" y="0px"
	 viewBox="0 0 512 512" style="enable-background:new 0 0 512 512;" xml:space="preserve">
<style type="text/css">
	.st0{fill:#FFFFFF;}
</style>
<g>
	<path class="st0" d="M449.8,278.8c-6.1-8.5-15.1-12.1-25.2-12.3c-5.7-0.2-10.9-1.4-15.7-4.4c-3.7-2.3-7-5-9.8-8.3
		c-8-9-12.6-19.2-11.1-31.6c1.2-9.6,5.3-17.8,11.5-25.1c3.7-4.3,7.5-8.4,10.8-13c5.8-7.9,8.1-17.1,7.8-26.7
		c-0.5-17.7-9.6-30.4-24.3-39.1c-11-6.5-22.8-7.2-34.8-3.1c-5.9,2-11.3,4.8-15.8,9.1c-3.4,3.2-6.6,6.7-10.2,9.6
		c-3,2.5-6.3,4.9-9.9,6.3c-12.9,5.3-25.4,4.7-37-3.6c-7.9-5.7-13-13.1-14.8-22.9c-1-5.8-0.3-11.5,0.4-17.2c0.9-6.9,0.3-13.5-1.8-20
		c-2.5-7.8-7.4-13.6-15.3-16.3c-3.3-1.1-6.9-2-10.4-2.4c-13.7-1.6-28.9,5-33.1,22.2c-0.7,2.9-2.2,5.6-5.2,6.8
		c-2.5,1-5.1,1.8-7.7,2.2c-6.9,1.3-13.9,1.9-20.7,3.5c-26.1,6.2-50.2,16.8-72,32.6C91.5,135.3,79,147,68,160.3
		c-13.5,16.3-24,34.4-31.7,54.2c-11.5,29.8-15.6,60.6-12.4,92.3c3.6,36,16.2,68.7,37.7,97.9c15.5,21.2,34.5,38.5,56.9,52.2
		c16.4,10,33.8,17.4,52.3,22.3c15.6,4.1,31.5,6.2,47.6,6.4h4.8c17.6,0.2,34.8-2.2,51.6-7c33.4-9.4,62.6-26.2,87.2-50.8
		c11.1-11.1,20.8-23.2,29-36.5c5.1-8.3,9.3-17,13.6-25.7c5.4-10.9,10.2-22,13.2-33.9c0.5-2,1.8-2.9,3.6-3.2c1.2-0.2,2.4-0.2,3.7-0.2
		c14.1-0.7,25.8-9.2,29.4-23.9C456.7,295.2,455.2,286.5,449.8,278.8z M201.2,356.9c-8.1,0-14.5-6.5-14.4-14.6
		c0.1-8.6,7.7-14.8,14.7-14.2c8.2,0.1,14.2,6.4,14.1,14.7C215.5,350.8,209.2,357,201.2,356.9z M300.1,356.9
		c-8-0.2-14.1-6.4-14.1-14.4c0-8.2,6.2-14.4,14.4-14.4c7.2-0.5,14.5,6.3,14.4,14.5C314.7,349,309.4,357.1,300.1,356.9z M311.3,318.7
		c-40.4,0-80.5,0-120.6,0.1c-2.6,0-3.9-1-5-3.2C174.4,293,163,270.5,151.8,248c-1.3-2.6-2.7-3.9-5.8-3.7c-4,0.3-8.1,0.1-12.3,0.1
		c-2.9-5.2-5.7-10.2-8.5-15.3c-0.3-0.5-0.5-1.1-0.8-2.1c1.3-0.1,2.3-0.3,3.4-0.3c10.2,0,20.4,0.1,30.6-0.1c2.5,0,3.7,0.9,4.8,3.1
		c11.3,22.7,22.7,45.3,33.9,68c1.3,2.7,2.8,3.7,5.8,3.7c27,0,53.9,0.2,80.8,0.3h3c-0.3-2.6-21.8-44.8-25.6-50.3
		c-0.6,1-1.2,1.8-1.7,2.7c-5.1,9.6-10.2,19.1-15.1,28.7c-1.1,2.1-2.3,3.1-4.8,3c-4-0.2-8.1,0-12.2-0.1c-1,0-1.9-0.1-3.2-0.2
		c0.5-1.3,0.9-2.3,1.4-3.2c8.5-17.1,17-34.1,25.4-51.2c1.2-2.5,2.6-3.4,5.4-3.3c3.5,0.2,7.1,0.2,10.7,0c2.5-0.2,3.7,0.7,4.8,2.9
		c5.4,11.3,11,22.5,16.6,33.8c8.2,16.5,16.3,33.1,24.5,49.6c0.6,1.3,1.2,2.6,2,4.3C313.4,318.5,312.3,318.7,311.3,318.7z"/>
	<path class="st0" d="M313.8,120.8c12.8,0.3,23.7-9.3,23.8-23.8c0.2-13.1-9.9-23-23.4-23.5c-12.9-0.2-23.4,9.4-23.8,23.4
		C290,110,300.1,120.4,313.8,120.8z"/>
	<path class="st0" d="M410.8,225.8c-0.1,10.6,7.9,18.6,19.3,18.2c11-0.3,17.2-8.4,17.8-18.8c-0.6-10.6-8.1-18.3-19.3-18.1
		C417.8,207.3,410.9,215.4,410.8,225.8z"/>
	<path class="st0" d="M357.1,59.5c8.3-0.1,14.2-6.1,14.6-14.9c0.4-8.5-6.9-14.6-15.1-14.6c-8-0.1-14.7,6.3-14.7,14
		C341.8,53,347.7,59,357.1,59.5z"/>
	<path class="st0" d="M450.1,136.3c-8.7,0.1-14,5.8-14.4,14.5c-0.4,8.4,5.6,14,14.4,14.4c9.1,0.3,14.1-6,14.4-14.4
		C465,142.2,459.1,137.2,450.1,136.3z"/>
	<path class="st0" d="M400.1,100c7.4,0.1,11.4-5.3,11.5-11.8c0.1-7.2-4.8-11.2-12-11.8c-7.7,0.2-11.7,5.6-11.7,12.1
		C387.9,95.6,392.7,99.9,400.1,100z"/>
	<path class="st0" d="M477.5,91.4c-7.7-0.3-11.8,5.2-11.9,11.7c-0.1,7,4.2,11.2,11.9,11.8c7.2-0.1,11.6-5.1,11.7-12
		C489.3,96,484.6,91.6,477.5,91.4z"/>
	<path class="st0" d="M427.5,41.8c4.7-0.1,7.1-3.3,7.5-7.9c0.3-4.2-3.7-7.6-8.2-7.5c-4.6,0.2-7.1,3.6-7.3,8.1
		C419.3,38.5,423.1,41.9,427.5,41.8z"/>
</g>
</svg>
