<?xml version="1.0" encoding="utf-8"?>
<!-- Generator: Adobe Illustrator 22.0.0, SVG Export Plug-In . SVG Version: 6.00 Build 0)  -->
<svg version="1.1" id="icon" xmlns="http://www.w3.org/2000/svg" xmlns:xlink="http://www.w3.org/1999/xlink" x="0px" y="0px"
	 viewBox="0 0 512 512" style="enable-background:new 0 0 512 512;" xml:space="preserve">
<style type="text/css">
	.st0{fill:url(#SVGID_1_);}
	.st1{fill:url(#SVGID_2_);}
	.st2{fill:url(#SVGID_3_);}
	.st3{fill:url(#SVGID_4_);}
	.st4{fill:url(#SVGID_5_);}
	.st5{fill:url(#SVGID_6_);}
	.st6{fill:url(#SVGID_7_);}
	.st7{fill:url(#SVGID_8_);}
	.st8{fill:#FFFFFF;}
</style>
<g>
	<g>
		<g>
			<linearGradient id="SVGID_1_" gradientUnits="userSpaceOnUse" x1="185.1129" y1="480.0455" x2="259.7326" y2="204.3674">
				<stop  offset="0" style="stop-color:#660F24"/>
				<stop  offset="1" style="stop-color:#E81D25"/>
			</linearGradient>
			<path class="st0" d="M218.4,485.6c-16.1-0.2-32-2.3-47.6-6.4c-18.5-4.9-35.9-12.3-52.3-22.3c-22.4-13.7-41.4-31-56.9-52.2
				c-21.4-29.2-34-61.9-37.6-97.9c-3.2-31.7,0.9-62.5,12.4-92.3c7.6-19.8,18.2-37.9,31.7-54.2c11-13.3,23.5-25,37.6-35.1
				c21.8-15.8,45.9-26.4,72-32.6c6.8-1.6,13.8-2.2,20.7-3.5c2.6-0.5,5.2-1.2,7.7-2.2c2.9-1.2,4.5-3.9,5.2-6.8
				c4.2-17.2,19.5-23.8,33.1-22.2c3.5,0.4,7,1.2,10.4,2.4c7.9,2.7,12.8,8.5,15.3,16.3c2.1,6.5,2.6,13.1,1.8,20
				c-0.7,5.7-1.4,11.4-0.4,17.2c1.7,9.7,6.9,17.2,14.8,22.9c11.6,8.3,24.2,8.9,37,3.6c3.6-1.5,6.9-3.9,9.9-6.3
				c3.6-2.9,6.8-6.4,10.2-9.6c4.6-4.3,10-7.1,15.8-9.1c12-4.1,23.8-3.4,34.8,3.1c14.8,8.8,23.8,21.5,24.3,39.1
				c0.3,9.6-2,18.8-7.8,26.7c-3.3,4.5-7.2,8.7-10.8,13c-6.2,7.3-10.3,15.5-11.5,25.1c-1.5,12.3,3.1,22.6,11.1,31.6
				c2.9,3.2,6.1,6,9.8,8.3c4.8,3,9.9,4.3,15.7,4.4c10.1,0.3,19.1,3.8,25.2,12.4c5.5,7.7,7,16.4,4.7,25.6
				c-3.6,14.8-15.3,23.3-29.4,23.9c-1.2,0.1-2.5,0-3.7,0.2c-1.8,0.3-3.1,1.2-3.6,3.2c-2.9,11.9-7.8,23-13.2,33.9
				c-4.3,8.7-8.5,17.4-13.6,25.7c-8.3,13.3-17.9,25.5-29,36.5c-24.6,24.6-53.8,41.3-87.2,50.8c-16.8,4.8-34.1,7.2-51.6,7
				C221.6,485.6,220,485.6,218.4,485.6z M133.7,244.4c4.2,0,8.2,0.2,12.3-0.1c3.1-0.2,4.5,1.1,5.8,3.7
				c11.2,22.6,22.6,45.1,33.9,67.6c1.1,2.3,2.4,3.2,5,3.2c40.1-0.1,80.2-0.1,120.3-0.1c1,0,2.1-0.1,3.6-0.3c-0.8-1.7-1.3-3-2-4.3
				c-8.2-16.5-16.3-33.1-24.5-49.6c-5.5-11.2-11.1-22.5-16.6-33.8c-1.1-2.2-2.3-3.1-4.8-2.9c-3.6,0.2-7.1,0.2-10.7,0
				c-2.7-0.2-4.1,0.8-5.4,3.3c-8.4,17.1-16.9,34.2-25.4,51.2c-0.5,1-0.8,2-1.4,3.2c1.3,0.1,2.3,0.2,3.2,0.2c4.1,0,8.1-0.2,12.2,0.1
				c2.5,0.1,3.7-0.8,4.8-3c4.9-9.6,10.1-19.2,15.1-28.7c0.5-0.9,1.1-1.8,1.7-2.7c3.9,5.6,25.4,47.7,25.6,50.3c-1,0-2,0-3,0
				c-26.9-0.1-53.9-0.3-80.8-0.3c-3,0-4.5-1-5.8-3.7c-11.2-22.7-22.6-45.3-33.9-68c-1.1-2.1-2.3-3.1-4.8-3.1
				c-10.2,0.1-20.4,0.1-30.6,0.1c-1,0-2.1,0.2-3.4,0.3c0.4,1,0.6,1.6,0.9,2.1C128,234.1,130.8,239.2,133.7,244.4z M201.5,328.2
				c-7.1-0.6-14.7,5.6-14.7,14.2c-0.1,8.1,6.3,14.6,14.4,14.6c8,0,14.4-6.2,14.5-14.1C215.7,334.5,209.7,328.2,201.5,328.2z
				 M300.4,328.2c-8.2,0-14.4,6.2-14.4,14.4c0,8,6.2,14.2,14.1,14.4c9.3,0.2,14.6-8,14.7-14.3C314.8,334.5,307.6,327.6,300.4,328.2z
				"/>
			<linearGradient id="SVGID_2_" gradientUnits="userSpaceOnUse" x1="208.6329" y1="486.4118" x2="283.2526" y2="210.7337">
				<stop  offset="0" style="stop-color:#660F24"/>
				<stop  offset="1" style="stop-color:#E81D25"/>
			</linearGradient>
			<path class="st1" d="M314.2,73.6c13.5,0.5,23.6,10.4,23.4,23.5c-0.2,14.5-11,24.1-23.8,23.8C300.1,120.4,290,110,290.4,97
				C290.8,82.9,301.3,73.4,314.2,73.6z"/>
			<linearGradient id="SVGID_3_" gradientUnits="userSpaceOnUse" x1="348.3737" y1="524.2364" x2="422.9934" y2="248.5583">
				<stop  offset="0" style="stop-color:#660F24"/>
				<stop  offset="1" style="stop-color:#E81D25"/>
			</linearGradient>
			<path class="st2" d="M447.9,225.2c-0.6,10.4-6.8,18.5-17.8,18.8c-11.4,0.4-19.4-7.7-19.3-18.2c0.1-10.4,7-18.4,17.8-18.6
				C439.7,206.9,447.3,214.6,447.9,225.2z"/>
			<linearGradient id="SVGID_4_" gradientUnits="userSpaceOnUse" x1="235.1806" y1="493.5977" x2="309.8002" y2="217.9195">
				<stop  offset="0" style="stop-color:#660F24"/>
				<stop  offset="1" style="stop-color:#E81D25"/>
			</linearGradient>
			<path class="st3" d="M357.1,59.5C347.7,59,341.8,53,341.9,44c0.1-7.7,6.7-14.1,14.7-14c8.2,0.1,15.5,6.2,15.1,14.6
				C371.3,53.4,365.3,59.5,357.1,59.5z"/>
			<linearGradient id="SVGID_5_" gradientUnits="userSpaceOnUse" x1="349.042" y1="524.4172" x2="423.6616" y2="248.7391">
				<stop  offset="0" style="stop-color:#660F24"/>
				<stop  offset="1" style="stop-color:#E81D25"/>
			</linearGradient>
			<path class="st4" d="M450.1,136.3c9,0.9,14.8,5.9,14.5,14.5c-0.4,8.4-5.3,14.8-14.4,14.4c-8.9-0.3-14.9-5.9-14.4-14.4
				C436.2,142.1,441.4,136.4,450.1,136.3z"/>
			<linearGradient id="SVGID_6_" gradientUnits="userSpaceOnUse" x1="286.2848" y1="507.4304" x2="360.9044" y2="231.7522">
				<stop  offset="0" style="stop-color:#660F24"/>
				<stop  offset="1" style="stop-color:#E81D25"/>
			</linearGradient>
			<path class="st5" d="M399.6,76.4c7.2,0.6,12.1,4.6,12,11.8c-0.1,6.5-4.1,11.9-11.5,11.8c-7.4-0.1-12.2-4.4-12.2-11.5
				C387.9,82,391.9,76.7,399.6,76.4z"/>
			<linearGradient id="SVGID_7_" gradientUnits="userSpaceOnUse" x1="362.3383" y1="528.0163" x2="436.9579" y2="252.3381">
				<stop  offset="0" style="stop-color:#660F24"/>
				<stop  offset="1" style="stop-color:#E81D25"/>
			</linearGradient>
			<path class="st6" d="M477.5,114.9c-7.7-0.7-12-4.8-11.9-11.8c0.1-6.5,4.2-12,11.9-11.7c7.2,0.3,11.8,4.7,11.7,11.6
				C489.1,109.8,484.6,114.9,477.5,114.9z"/>
			<linearGradient id="SVGID_8_" gradientUnits="userSpaceOnUse" x1="298.2469" y1="510.6682" x2="372.8665" y2="234.9901">
				<stop  offset="0" style="stop-color:#660F24"/>
				<stop  offset="1" style="stop-color:#E81D25"/>
			</linearGradient>
			<path class="st7" d="M426.8,26.4c4.6-0.1,8.6,3.4,8.2,7.5c-0.4,4.6-2.8,7.8-7.5,7.9c-4.4,0.1-8.2-3.3-8.1-7.3
				C419.7,30,422.2,26.5,426.8,26.4z"/>
			<path class="st8" d="M133.7,244.4c-2.9-5.2-5.7-10.2-8.5-15.3c-0.3-0.5-0.5-1.1-0.9-2.1c1.3-0.1,2.3-0.3,3.4-0.3
				c10.2,0,20.4,0.1,30.6-0.1c2.5,0,3.7,0.9,4.8,3.1c11.3,22.7,22.7,45.3,33.9,68c1.3,2.7,2.8,3.7,5.8,3.7c26.9,0,53.9,0.2,80.8,0.3
				c1,0,2,0,3,0c-0.3-2.6-21.8-44.7-25.6-50.3c-0.6,1-1.2,1.8-1.7,2.7c-5.1,9.6-10.2,19.1-15.1,28.7c-1.1,2.1-2.3,3.1-4.8,3
				c-4-0.2-8.1,0-12.2-0.1c-1,0-1.9-0.1-3.2-0.2c0.5-1.3,0.9-2.3,1.4-3.2c8.5-17.1,17-34.1,25.4-51.2c1.2-2.5,2.6-3.4,5.4-3.3
				c3.6,0.2,7.1,0.2,10.7,0c2.5-0.1,3.7,0.7,4.8,2.9c5.4,11.3,11,22.5,16.6,33.8c8.2,16.5,16.3,33.1,24.5,49.6
				c0.6,1.3,1.2,2.6,2,4.3c-1.5,0.1-2.6,0.3-3.6,0.3c-40.1,0-80.2,0-120.3,0.1c-2.6,0-3.9-1-5-3.2C174.4,293,163,270.5,151.8,248
				c-1.3-2.6-2.7-3.9-5.8-3.7C141.9,244.6,137.9,244.4,133.7,244.4z"/>
			<path class="st8" d="M201.5,328.2c8.2,0.1,14.2,6.4,14.1,14.7c-0.1,7.9-6.5,14.1-14.5,14.1c-8.1,0-14.5-6.5-14.4-14.6
				C186.8,333.7,194.4,327.5,201.5,328.2z"/>
			<path class="st8" d="M300.4,328.2c7.2-0.5,14.5,6.3,14.4,14.5c-0.1,6.3-5.4,14.5-14.7,14.3c-8-0.2-14.1-6.4-14.1-14.4
				C286,334.3,292.2,328.1,300.4,328.2z"/>
		</g>
	</g>
	<path class="st8" d="M314.8,231.2l-1-7.6c0.9-0.7,1.8-1.4,2.6-2.2c0.8-0.8,1.5-1.6,2.2-2.5l7.6,1c0.8,0.1,1.6-0.4,1.8-1.2l2.9-11
		c0.2-0.8-0.2-1.6-0.9-1.9l-7.1-2.9c0,0,0,0,0,0c-0.2-2.2-0.8-4.4-1.7-6.5l4.7-6.1c0.5-0.6,0.4-1.5-0.1-2.1l-8-8
		c-0.6-0.6-1.5-0.6-2.1-0.1l-6.1,4.7c0,0,0,0,0,0c-2.1-0.9-4.2-1.5-6.5-1.7c0,0,0,0,0,0l-2.9-7.1c-0.3-0.7-1.1-1.1-1.9-0.9l-11,2.9
		c-0.8,0.2-1.3,1-1.2,1.8l1,7.6c-0.9,0.7-1.8,1.4-2.6,2.2c-0.8,0.8-1.5,1.6-2.2,2.5l-7.6-1c-0.8-0.1-1.6,0.4-1.8,1.2l-2.9,11
		c-0.2,0.8,0.2,1.6,0.9,1.9l7.1,2.9c0.2,2.2,0.8,4.4,1.7,6.5l-4.7,6.1c-0.5,0.6-0.4,1.5,0.1,2.1l8,8c0.6,0.6,1.5,0.6,2.1,0.1
		l6.1-4.7l0,0c2.1,0.9,4.2,1.5,6.5,1.7l2.9,7.1c0.3,0.7,1.1,1.1,1.9,0.9l11-2.9C314.4,232.7,314.9,232,314.8,231.2z M294.4,213.9
		c-5.8-4.2-5.8-12.8,0-17c3.5-2.5,8.5-2.5,12,0c5.9,4.2,5.9,12.8,0,17C302.8,216.5,297.9,216.5,294.4,213.9z"/>
</g>
</svg>
