<?xml version="1.0" encoding="utf-8"?>
<!-- Generator: Adobe Illustrator 22.0.0, SVG Export Plug-In . SVG Version: 6.00 Build 0)  -->
<svg version="1.1" id="icon" xmlns="http://www.w3.org/2000/svg" xmlns:xlink="http://www.w3.org/1999/xlink" x="0px" y="0px"
	 viewBox="0 0 512 512" style="enable-background:new 0 0 512 512;" xml:space="preserve">
<style type="text/css">
	.st0{fill:#E8E8E8;}
	.st1{fill:#AFAFAF;}
</style>
<rect x="-7.3" y="-7.3" class="st0" width="526" height="526"/>
<g>
	<g>
		<g>
			<path class="st1" d="M237.4,370.1c-8-0.1-15.9-1.1-23.6-3.2c-9.2-2.4-17.8-6.1-26-11.1c-11.1-6.8-20.6-15.4-28.3-25.9
				c-10.6-14.5-16.9-30.7-18.7-48.6c-1.6-15.7,0.4-31,6.2-45.8c3.8-9.8,9-18.8,15.7-26.9c5.5-6.6,11.7-12.4,18.7-17.4
				c10.8-7.8,22.8-13.1,35.8-16.2c3.4-0.8,6.9-1.1,10.3-1.7c1.3-0.2,2.6-0.6,3.8-1.1c1.4-0.6,2.2-1.9,2.6-3.4
				c2.1-8.5,9.7-11.8,16.4-11c1.7,0.2,3.5,0.6,5.2,1.2c3.9,1.3,6.4,4.2,7.6,8.1c1,3.2,1.3,6.5,0.9,9.9c-0.3,2.8-0.7,5.7-0.2,8.5
				c0.8,4.8,3.4,8.5,7.4,11.4c5.8,4.1,12,4.4,18.4,1.8c1.8-0.7,3.4-1.9,4.9-3.1c1.8-1.4,3.4-3.2,5.1-4.8c2.3-2.1,5-3.5,7.8-4.5
				c6-2,11.8-1.7,17.3,1.5c7.4,4.4,11.8,10.7,12.1,19.4c0.1,4.8-1,9.3-3.9,13.3c-1.6,2.2-3.6,4.3-5.4,6.5c-3.1,3.6-5.1,7.7-5.7,12.5
				c-0.7,6.1,1.5,11.2,5.5,15.7c1.4,1.6,3,3,4.9,4.1c2.4,1.5,4.9,2.1,7.8,2.2c5,0.1,9.5,1.9,12.5,6.2c2.7,3.8,3.5,8.1,2.3,12.7
				c-1.8,7.4-7.6,11.6-14.6,11.9c-0.6,0-1.2,0-1.8,0.1c-0.9,0.1-1.5,0.6-1.8,1.6c-1.4,5.9-3.9,11.4-6.6,16.8
				c-2.1,4.3-4.2,8.6-6.8,12.8c-4.1,6.6-8.9,12.7-14.4,18.1c-12.2,12.2-26.7,20.5-43.3,25.2c-8.3,2.4-16.9,3.6-25.6,3.5
				C239,370.1,238.2,370.1,237.4,370.1z M195.3,250.3c2.1,0,4.1,0.1,6.1,0c1.5-0.1,2.2,0.5,2.9,1.8c5.6,11.2,11.2,22.4,16.8,33.6
				c0.5,1.1,1.2,1.6,2.5,1.6c19.9,0,39.8,0,59.8,0c0.5,0,1,0,1.8-0.1c-0.4-0.8-0.6-1.5-1-2.1c-4.1-8.2-8.1-16.4-12.2-24.6
				c-2.7-5.6-5.5-11.2-8.2-16.8c-0.5-1.1-1.1-1.5-2.4-1.4c-1.8,0.1-3.5,0.1-5.3,0c-1.3-0.1-2,0.4-2.7,1.6c-4.2,8.5-8.4,17-12.6,25.4
				c-0.2,0.5-0.4,1-0.7,1.6c0.6,0,1.1,0.1,1.6,0.1c2,0,4-0.1,6.1,0c1.2,0,1.8-0.4,2.4-1.5c2.4-4.8,5-9.5,7.5-14.3
				c0.2-0.4,0.5-0.9,0.8-1.3c1.9,2.8,12.6,23.7,12.7,25c-0.5,0-1,0-1.5,0c-13.4,0-26.8-0.1-40.1-0.1c-1.5,0-2.2-0.5-2.9-1.8
				c-5.6-11.3-11.2-22.5-16.8-33.8c-0.5-1-1.1-1.5-2.4-1.5c-5.1,0-10.1,0-15.2,0c-0.5,0-1,0.1-1.7,0.1c0.2,0.5,0.3,0.8,0.4,1
				C192.5,245.2,193.8,247.7,195.3,250.3z M229,291.9c-3.5-0.3-7.3,2.8-7.3,7.1c0,4,3.1,7.3,7.2,7.3c4,0,7.2-3.1,7.2-7
				C236,295,233,291.9,229,291.9z M278.1,291.9c-4.1,0-7.2,3.1-7.2,7.2c0,4,3.1,7.1,7,7.2c4.6,0.1,7.3-4,7.3-7.1
				C285.2,295,281.7,291.6,278.1,291.9z"/>
			<path class="st1" d="M284.9,165.4c6.7,0.2,11.7,5.2,11.6,11.7c-0.1,7.2-5.5,12-11.8,11.8c-6.8-0.2-11.8-5.4-11.6-11.9
				C273.3,170.1,278.5,165.3,284.9,165.4z"/>
			<path class="st1" d="M351.4,240.8c-0.3,5.2-3.4,9.2-8.8,9.3c-5.7,0.2-9.6-3.8-9.6-9c0-5.2,3.5-9.1,8.8-9.2
				C347.3,231.7,351.1,235.5,351.4,240.8z"/>
			<path class="st1" d="M306.3,158.4c-4.7-0.2-7.6-3.2-7.6-7.7c0-3.8,3.3-7,7.3-7c4.1,0,7.7,3.1,7.5,7.3
				C313.3,155.4,310.3,158.4,306.3,158.4z"/>
			<path class="st1" d="M352.5,196.6c4.5,0.4,7.4,2.9,7.2,7.2c-0.2,4.2-2.6,7.4-7.2,7.2c-4.4-0.1-7.4-2.9-7.2-7.2
				C345.6,199.5,348.1,196.6,352.5,196.6z"/>
			<path class="st1" d="M327.4,166.8c3.6,0.3,6,2.3,6,5.9c0,3.2-2,5.9-5.7,5.9c-3.7,0-6.1-2.2-6.1-5.7
				C321.6,169.6,323.5,167,327.4,166.8z"/>
			<path class="st1" d="M366.1,186c-3.8-0.3-6-2.4-5.9-5.9c0-3.2,2.1-6,5.9-5.8c3.6,0.1,5.9,2.3,5.8,5.8
				C371.8,183.4,369.6,186,366.1,186z"/>
			<path class="st1" d="M340.9,142c2.3,0,4.3,1.7,4.1,3.7c-0.2,2.3-1.4,3.9-3.7,3.9c-2.2,0-4.1-1.6-4-3.6
				C337.4,143.8,338.6,142.1,340.9,142z"/>
		</g>
	</g>
</g>
</svg>
